<?xml version="1.0"?><svg version="1.2" baseProfile="tiny-ps" viewBox="0 0 300 300" xmlns="http://www.w3.org/2000/svg" xmlns:xlink="http://www.w3.org/1999/xlink"><title>More4Less</title><g><g fill="#fff" transform="matrix(.1 0 0 -.1 0 300)"><path d="M0 1500V0h3000v3000H0V1500z"/></g><g fill="#e2e2e2" transform="matrix(.1 0 0 -.1 0 300)"><path d="m233 2033-23-4-5-22c-3-12-27-123-54-245l-48-224 24-9c13-5 35-9 48-9h23l10 48c6 26 21 100 33 165 13 64 26 117 29 117s32-62 66-137l60-138 40-3 40-3 64 146c35 81 65 143 67 138 1-4 13-73 28-153 14-80 27-154 30-166l5-21 50 10 51 10-4 11c-2 6-23 115-47 241l-43 230-16 13c-8 6-27 12-42 12h-27l-9-12c-5-7-39-79-74-160l-64-147-6 7c-4 4-38 76-75 160l-67 152-21-1c-12-1-31-4-43-6zm684-118c-48-16-83-48-108-97l-19-37v-54c0-99 37-162 115-198l40-19h33c69 0 138 45 173 112l19 37v116l-19 40c-22 48-54 79-103 100-45 18-81 19-131 0zm104-85c10-6 26-25 35-42l16-31-4-55-5-55-27-24-27-23h-56l-26 21-27 20-9 37-10 37 9 40 9 40 26 23 26 22h25c14 0 34-5 45-10zm359 75-55-23-3 19-3 19h-89v-400h89l3 132 3 132 70 28c39 15 73 28 77 30l7 3-11 43-10 42h-12c-6-1-36-12-66-25zm220 13-35-10-32-31-33-31-16-43-17-43 6-55 6-55 21-35 22-35 44-26 45-26 84-6 85-5 4 14c3 8 7 28 8 44l3 30-75 6-75 5-22 12c-20 11-53 59-53 77 0 3 57 5 126 5h127l-7 57-7 57-17 31-17 30-45 23-44 22-26-1c-14 0-41-5-60-11zm103-100 22-23-69-3c-37-2-71 0-75 3l-6 7 24 19 23 19h58l23-22zm-83-537v-211h-30v230l-36 17-35 17-42-49c-23-28-80-92-126-143l-84-94 16-34 17-34h189l3-82 3-83h90l3 83 3 82h359v90h-230l-2 208-3 207-47 3-48 3v-210zm-130-161v-50h-40c-22 0-40 3-40 6 0 5 72 93 78 94 1 0 2-22 2-50zm558 240-37-20-26-43-25-44v-134l14-27c20-38 65-78 108-96l37-16h149l6 23c3 12 6 32 6 45v22h-141l-29 15-30 15-15 30c-8 16-15 31-15 35 0 3 56 5 125 5h125v85l-20 42-19 43-33 20-33 20h-55l-55-1-37-19zm135-82 22-23-64-3c-35-2-66 0-70 3l-6 7 24 19 23 19h48l23-22zm552 93c-43-11-72-28-89-53l-16-22v-33c0-18 5-44 12-58l12-27 58-29 59-30 6-15 6-15-12-12-12-12-67-1-67-1-3-40-3-40 43-6 42-6 48 9c60 12 81 23 107 56l21 27v74l-20 26c-11 14-45 39-75 56l-55 31v14c0 19 23 26 86 26h55l-3 43-3 42-50 2c-27 1-63-2-80-6zm-342-21c-40-24-53-48-53-98v-39l24-26c13-14 47-37 75-51l51-26v-30l-26-10c-14-6-50-10-80-10h-54v-80h151l34 14 35 15 20 33 21 33-5 38-4 39-16 17c-8 9-43 32-76 51-33 18-60 37-60 42 0 4 9 12 19 18l20 10h111v80h-155l-32-20z"/></g><g fill="#b9b9b9" transform="matrix(.1 0 0 -.1 0 300)"><path d="m243 2033-32-4-14-67c-50-226-90-423-86-426 3-3 23-8 45-12l41-6 34 171 33 171 8-8c4-4 34-68 67-142l60-135h75l65 144c36 79 67 139 68 134 2-5 17-80 33-167s31-160 34-163c2-3 23-2 45 2l41 7v16c0 19-88 473-92 478-2 1-21 4-43 6l-39 3-69-157c-39-87-73-158-76-158s-37 72-76 160l-70 160-10-2c-5 0-24-3-42-5zm712-108c-5-2-22-6-37-9-14-3-41-18-59-33l-32-27-18-41-19-40v-110l19-40 18-41 32-27 32-26 37-11c20-5 44-10 52-10s32 5 52 10l37 11 32 26 32 27 18 41 19 40v45c0 25-5 63-11 85l-11 40-37 36-36 37-40 11c-40 11-61 12-80 6zm83-108c13-13 27-39 32-58l10-34-6-33-6-33-25-30-25-29h-76l-25 29-25 30-6 33-6 33 10 34c5 19 19 45 32 58l21 23h74l21-23zm347 88c-33-14-61-25-61-25-1 0-4 9-7 21l-5 20-39-3-38-3-3-197-2-198h89l3 132 3 133 73 29 72 30v20c0 29-11 66-19 66-3 0-33-12-66-25zm250 20c-5-2-22-6-37-9-14-3-41-18-59-33l-32-27-18-41-19-40v-35c0-85 40-154 111-191l39-19 59-6 59-7 26 7 26 6v80h-131l-29 15c-30 16-60 51-60 72v12l123 3 122 3-1 42-1 42-18 41-18 40-31 19c-30 18-91 33-111 26zm73-112 14-23h-142v9c0 6 10 17 23 26l22 16 34-3 34-3 15-22zm-88-533v-210h-30v226l-29 17c-16 9-31 17-34 17-5 0-215-234-245-272l-13-17 16-30 16-31h199V820h90v160h361l-3 43-3 42-117 3-118 3v419h-90v-210zm-120-155v-55h-102l47 55c26 30 49 55 51 55s4-25 4-55zm555 236c-69-42-95-91-95-177v-55l14-32c7-18 27-44 42-59l29-27 44-16 44-15h134l6 37c4 20 4 40 1 45l-5 8h-149l-29 28c-16 15-32 37-36 50l-6 22h254l-6 55-6 55-20 34-21 34-34 16-34 16h-97l-30-19zm123-77c12-8 22-19 22-25v-9h-143l23 25 23 25h53l22-16zm557 87c-68-17-105-59-105-119v-29l21-27 21-27 49-25 50-25 6-16 6-16-18-13-19-14h-126v-80l38-1c70-3 117 3 151 19l33 15 20 31 19 31-5 38-4 39-17 18c-9 10-43 32-76 49-63 34-70 44-40 61l20 10h111v78l-16 6c-20 8-80 6-119-3zm-342-21c-39-23-53-48-53-93v-34l20-26c11-14 45-39 75-56l55-31v-29l-19-11-20-10h-121v-80h155l40 23 40 23 14 40 14 41-13 32-13 32-68 41c-38 22-69 43-69 47s5 12 12 19l12 12h126v24c0 13-3 31-6 40l-6 16h-143l-32-20z"/></g><g fill="gray" transform="matrix(.1 0 0 -.1 0 300)"><path d="M255 2032c-16-2-33-7-37-11-8-7-112-481-106-486 1-1 21-6 43-9l41-7 34 175 34 176 6-8c4-4 33-65 65-137 31-71 62-136 68-143l10-13 31 3 30 3 65 147c35 81 66 147 67 145 1-1 16-78 33-171s32-171 35-173c2-2 22-1 45 3l41 7v11c0 14-90 479-93 482-1 1-19 4-41 6l-39 3-71-162-70-163-7 8c-4 4-37 74-73 156s-69 152-73 156c-5 3-21 4-38 2zm632-132-37-21-28-41-27-42v-151l23-37c29-46 72-78 120-89l37-8 44 10c24 5 57 19 74 31l30 21 25 55 25 54-6 53-5 52-21 41-21 40-32 23-33 24-65 2-65 3-38-20zm151-80 21-20 12-40 12-40-12-41c-7-22-21-49-32-60l-19-19h-81l-24 26-24 26-6 30-7 30 7 36 7 37 26 28 26 27h72l22-20zm342 80c-19-11-41-19-47-20h-13v30h-90v-380h90v258l76 28 76 27-6 30c-3 16-6 33-6 38v9h-22c-13-1-39-9-58-20zm200 9c-39-16-61-40-86-94l-24-50v-30c0-16 5-47 11-68l10-38 30-33 29-34 41-16c22-9 66-19 98-22l58-6 21 11 22 12v67l-79 3-80 4-30 29-31 30v46h252l-7 43c-10 59-28 98-59 127l-27 24-62 3-62 3-25-11zm114-80c14-11 26-25 26-30v-9h-140v9c0 14 50 51 70 51 10 0 29-9 44-21zm-74-554v-205h-41l3 112 3 111-31 19-31 18-95-107c-52-60-109-125-127-145l-33-38 22-30 22-31 92 2 91 2 3-82 3-81h79v160h360v90h-230v410h-90v-205zm-120-155v-60h-50c-27 0-50 3-50 6 0 8 89 114 96 114 2 0 4-27 4-60zm565 246c-39-18-70-52-90-98l-15-37v-106l23-40 22-39 34-23c44-30 93-43 164-43h58l3 13c3 6 7 24 10 40l6 27h-52c-29 0-70 5-90 10l-37 11-25 30c-14 17-26 37-26 45v14h250v76l-22 44-23 44-27 20-27 19-53 4-53 3-30-14zm120-86c10-11 16-23 13-26s-37-4-74-2l-69 3 23 23 22 22h67l18-20zm217 73-33-16-15-28c-7-15-14-41-14-57v-29l20-25 19-25 56-29 55-29v-34l-19-11-20-10h-121v-80h141l32 14c18 7 43 25 56 39l24 26 1 40 1 40-24 25c-14 15-49 40-78 56-56 32-61 38-41 58l12 12h57c32 0 60 3 62 8 3 4 2 22 0 40l-5 32h-133l-33-17zm302 7c-11-4-33-22-47-40l-27-32v-53l18-30 19-30 54-29c30-16 57-34 61-40l7-11-16-17-16-18h-138l3-37 3-38 70-3 70-3 45 23 45 23 15 42 14 42-17 35-16 35-48 25c-26 13-57 31-68 39l-19 15 13 16 13 16h128v24c0 13-3 31-6 40l-6 16-67-1c-36 0-75-4-87-9z"/></g><g fill="#434343" transform="matrix(.1 0 0 -.1 0 300)"><path d="m224 2022-11-7-51-235-50-235 6-7c4-3 23-8 41-10l35-3 34 173 35 173 8-8c4-4 35-69 68-143l60-135 38-3 38-2 64 146 65 147 6-19c4-11 20-90 35-177l28-157 36 6c20 4 39 9 43 13l8 7-48 239-47 240h-79l-70-157c-38-87-72-158-75-158s-37 72-76 160l-70 160h-30c-16 0-35-4-41-8zm681-116c-17-7-45-29-62-49l-32-37-12-42-11-43 6-42c3-24 15-61 26-83l20-39 43-26 44-25h97l43 21 43 21 27 46 27 46v66l-1 66-13 24c-18 35-60 79-92 96l-27 14h-48l-48-1-30-13zm116-72 31-15 14-34c18-44 18-86 0-130l-15-35-34-16-34-17-29 10-29 10-22 33-23 33v37c0 20 5 52 11 69l12 33 31 19c38 23 48 23 87 3zm352 61-53-24v39h-90v-380h90v258l73 28c39 15 73 29 75 30s0 18-3 38l-7 36h-17c-9 0-40-11-68-25zm195 5-37-20-27-46-27-46v-113l21-42 22-41 27-20c16-10 43-24 62-30l34-12h135l6 23c3 12 6 29 6 37v15h-125l-32 14-33 13-20 33c-11 18-20 37-20 44v11h250v81l-20 40-21 40-32 19-32 20h-50l-50-1-37-19zm130-70c12-12 22-25 22-30v-10h-149l5 15c8 19 52 44 80 45h20l22-20zm-78-561v-210l-17 3-18 3-3 118-3 117-27 14-28 15-122-139-122-138v-16c0-9 10-26 21-37l22-22 88 6 89 7V820h80v160h360v79l-112 3-113 3-3 208-2 207h-90v-211zm-123-206c-3-2-28-3-55-1l-51 3 52 62 52 62 3-61c2-33 1-62-1-65zm566 298-42-19-28-43-28-43v-142l27-41 27-41 48-23 48-23 75-1h75l3 38 3 37h-49c-27 0-64 3-81 6l-32 7-30 29-29 30v37l123 3 122 3-3 49-2 49-18 30c-9 17-29 39-44 50l-27 20-48 4-48 4-42-20zm96-62 31-11 10-18 9-17-6-7c-3-3-37-6-75-6h-68v13c0 15 26 41 50 50 8 3 15 6 16 6 1 1 15-4 33-10zm256 59c-11-6-30-20-42-31l-23-20-6-32-6-33 16-30 16-31 65-36c68-39 70-41 55-65l-9-15-73-5-73-5v-70l60-3 59-3 43 16 43 17 20 25 20 26v79l-28 26c-15 15-49 39-76 55l-47 27 3 18 3 17 68 9 67 9v67h-67l-68-1-20-11zm285-6-35-17-19-38-18-38 14-37 14-37 59-32c33-17 65-39 70-48l10-16-19-15-20-14h-126v-80h58c31 0 73 5 93 10l35 10 28 29 29 30 1 40 1 41-27 26c-14 15-48 39-75 53l-48 26-3 16-3 17 32 11c18 6 52 11 77 11h44l-6 23c-3 12-6 28-6 35v12h-125l-35-18z"/></g><g fill="#020202" transform="matrix(.1 0 0 -.1 0 300)"><path d="m230 2024-15-5-51-237c-28-130-49-239-48-240 1-2 18-7 38-12l35-8 5 17c3 9 19 88 36 175 16 88 32 161 35 164 2 2 16-22 30-54 15-33 45-101 67-152l41-93 35 3 36 3 65 149 65 149 7-19c4-10 20-86 34-169 14-82 28-155 30-162l4-11 36 8c20 5 38 10 40 12 1 1-18 111-44 243l-47 240h-76l-71-162c-39-89-74-160-77-157s-37 76-75 162l-71 157-24 2c-14 0-32-1-40-3zm691-111-23-5-42-42-43-42-12-48-12-48 11-55 12-54 31-36 32-36 32-13c43-18 95-18 140 1 48 20 71 41 94 87l19 37v122l-20 39-20 39-36 27-35 27-52 3c-29 1-63 0-76-3zm111-83c14-10 31-33 38-50l13-30-5-52-5-52-32-28-31-28h-60l-31 28-32 28-5 52-5 52 13 30c7 17 24 40 38 50l25 20h54l25-20zm344 65c-33-14-61-25-63-25s-3 9-3 20v20h-80v-380h89l3 131 3 131 70 28 70 28-3 24c-3 32-10 48-19 48-4-1-35-12-67-25zm205 7-35-17-30-38-30-37-4-59-4-59 11-35 12-36 39-35 39-35 38-10c21-6 66-11 101-11h62v19c0 11 3 26 6 35l6 16-58 1h-59l-35 12-34 12-23 34c-13 19-23 40-23 47v14h250v77l-23 43-22 43-35 18-35 19h-80l-34-18zm117-68 22-15v-39h-150v14c0 8 12 24 26 35l27 21h53l22-16zm-70-561-3-208-22-3-23-3v239l-29 12-30 12-33-38c-18-21-72-82-120-136-49-54-88-100-88-103 0-2 5-16 12-30l11-25h197V820h80v160h360v80h-230v420h-80l-2-207zm-131-210c-3-2-28-3-57-1l-53 3 54 64 54 63 3-62c2-34 1-64-1-67zm608 310c-11-3-35-12-53-20l-33-16-24-41-24-41-6-40-7-41 11-42 12-42 30-34 30-35 45-17 45-17 60-1 60-1 9 15c5 8 10 25 10 38v22h-135l-33 20-33 20-14 33c-7 17-11 35-9 39l5 8h239v81l-20 39-20 40-28 14c-33 17-89 26-117 19zm88-94c9-12 17-25 17-30v-9h-150v14c0 8 12 24 27 36l28 22 30-6 30-6 18-21zm233 81c-39-12-63-36-76-75l-11-33 14-34 14-34 62-33c34-18 65-39 68-47l5-14-12-15-12-15h-138v-83l74 6 74 5 31 16 31 16 15 30c17 34 19 73 5 100l-10 19-63 37c-34 20-65 41-69 48l-7 11 14 14 14 15 61 4 60 4v68l-57-1c-32 0-71-5-87-9zm277-9-41-19-11-20c-6-12-11-36-11-54v-34l15-21c8-11 40-35 70-52 31-18 59-39 62-47l6-16-17-16-17-17-65 1h-65l3-35 3-36 47-3 47-3 42 11 42 12 29 28 28 28v78l-15 21c-8 12-42 37-75 55l-60 33v34l19 11 20 10h101v70h-115l-42-19z"/></g></g></svg>